<svg width="13" height="20" viewBox="0 0 13 20" fill="none" xmlns="http://www.w3.org/2000/svg">
<path d="M-0.00390484 9.59982C-0.00456043 9.07013 0.22295 8.56581 0.620485 8.21576L9.54766 0.36205C10.1629 -0.154216 11.0778 -0.0848923 11.6082 0.518187C12.1387 1.12127 12.0907 2.03751 11.5001 2.58184L3.6936 9.44933C3.65025 9.48733 3.62539 9.54217 3.62539 9.59982C3.62539 9.65747 3.65025 9.71232 3.6936 9.75031L11.5001 16.6178C11.911 16.9626 12.1029 17.5029 12.0016 18.0297C11.9003 18.5565 11.5216 18.987 11.012 19.1548C10.5025 19.3225 9.9421 19.2011 9.54766 18.8376L0.623687 10.9863C0.225189 10.6356 -0.00340079 10.1306 -0.00390484 9.59982Z" fill="#3A1251"/>
</svg>
