<svg width="32" height="39" viewBox="0 0 32 39" fill="none" xmlns="http://www.w3.org/2000/svg">
<path fill-rule="evenodd" clip-rule="evenodd" d="M28.6315 15.4375H27.3684V10.9687C27.3684 4.91087 22.2786 0 16 0C9.72141 0 4.6316 4.91087 4.6316 10.9687V15.4375H3.3684C1.50812 15.4375 0 16.8926 0 18.6875V35.75C0 37.545 1.50812 39 3.3684 39H28.6315C30.4919 39 32 37.545 32 35.75V18.6875C32 16.8926 30.4919 15.4375 28.6315 15.4375ZM12.6316 25.1875C12.6242 23.6085 13.7941 22.2528 15.405 21.9739C17.0159 21.695 18.6014 22.5736 19.1635 24.0566C19.7255 25.5397 19.1015 27.1979 17.6842 27.9874V31.6875C17.6842 32.585 16.9302 33.3125 16 33.3125C15.0698 33.3125 14.3158 32.585 14.3158 31.6875V27.9874C13.2768 27.411 12.6349 26.3439 12.6316 25.1875ZM16 4.06251C12.0468 4.06251 8.84213 7.15453 8.84213 10.9687V14.625C8.84213 15.0738 9.21914 15.4375 9.6842 15.4375H22.3158C22.7809 15.4375 23.1579 15.0738 23.1579 14.625V10.9687C23.1579 7.15453 19.9532 4.06251 16 4.06251Z" fill="white"/>
</svg>
