<svg width="12" height="16" viewBox="0 0 12 16" fill="none" xmlns="http://www.w3.org/2000/svg">
<path fill-rule="evenodd" clip-rule="evenodd" d="M11.2838 14.974C11.2838 15.2506 11.1062 15.496 10.8434 15.5823C10.0278 15.8586 9.173 16.0014 8.31191 16.005C6.75755 16.0038 5.24388 15.5081 3.98985 14.5897C1.96935 13.1343 0.755166 10.81 0.714844 8.32021C0.755972 5.82394 1.97334 3.49366 3.99882 2.03404C5.97964 0.599381 8.54085 0.234659 10.8434 1.05935C11.1062 1.14573 11.2838 1.39109 11.2838 1.66773C11.2838 1.94437 11.1062 2.18973 10.8434 2.27611C8.23714 3.1391 6.47746 5.57541 6.47746 8.32085C6.47746 11.0663 8.23714 13.5026 10.8434 14.3656C11.1062 14.452 11.2838 14.6973 11.2838 14.974ZM1.99564 8.32021C2.03274 10.399 3.04989 12.3381 4.73912 13.5504C5.73056 14.2748 6.91863 14.681 8.14605 14.7152C8.21579 14.7172 8.27879 14.6738 8.30178 14.6079C8.32476 14.5421 8.30244 14.4689 8.24659 14.4271C6.30689 12.9673 5.17587 10.673 5.19924 8.24546C5.22262 5.81795 6.39762 3.54585 8.36506 2.12369C8.40533 2.09455 8.42222 2.04278 8.4069 1.9955C8.39157 1.94821 8.34752 1.91619 8.29782 1.91621C7.02263 1.91406 5.77985 2.31778 4.74936 3.06893C3.05327 4.28591 2.03224 6.233 1.99564 8.32021Z" fill="#755985"/>
</svg>
