<svg width="24" height="24" viewBox="0 0 24 24" fill="none" xmlns="http://www.w3.org/2000/svg">
<path fill-rule="evenodd" clip-rule="evenodd" d="M15.9901 4.67342C16.9214 3.78499 18.3863 3.78499 19.3175 4.67342C20.2331 5.59233 20.2331 7.0786 19.3175 7.9975L18.8412 8.4758C18.711 8.60601 18.4999 8.60601 18.3696 8.4758L15.5152 5.62068C15.385 5.49043 15.385 5.2793 15.5152 5.14905L15.9901 4.67342ZM14.794 6.33713C14.6618 6.21184 14.4547 6.21184 14.3224 6.33713L6.70899 13.9506C6.57879 14.0808 6.57879 14.2919 6.70899 14.4222L9.56411 17.2773C9.69436 17.4075 9.90549 17.4075 10.0357 17.2773L17.6492 9.66521C17.7794 9.53496 17.7794 9.32383 17.6492 9.19358L14.794 6.33713ZM5.99722 15.142C5.91505 15.0603 5.79638 15.0271 5.68375 15.0543C5.57113 15.0815 5.4807 15.1652 5.44487 15.2754L4.01731 19.5581C3.97714 19.6779 4.00813 19.8101 4.09736 19.8996C4.18733 19.988 4.31891 20.0191 4.43891 19.9803L8.72158 18.5534C8.83203 18.5177 8.91597 18.4271 8.94319 18.3143C8.97042 18.2014 8.93701 18.0826 8.855 18.0004L5.99722 15.142Z" fill="#3A1251"/>
<mask id="mask0_22339_310728" style="mask-type:luminance" maskUnits="userSpaceOnUse" x="4" y="4" width="17" height="16">
<path fill-rule="evenodd" clip-rule="evenodd" d="M15.9901 4.67342C16.9214 3.78499 18.3863 3.78499 19.3175 4.67342C20.2331 5.59233 20.2331 7.0786 19.3175 7.9975L18.8412 8.4758C18.711 8.60601 18.4999 8.60601 18.3696 8.4758L15.5152 5.62068C15.385 5.49043 15.385 5.2793 15.5152 5.14905L15.9901 4.67342ZM14.794 6.33713C14.6618 6.21184 14.4547 6.21184 14.3224 6.33713L6.70899 13.9506C6.57879 14.0808 6.57879 14.2919 6.70899 14.4222L9.56411 17.2773C9.69436 17.4075 9.90549 17.4075 10.0357 17.2773L17.6492 9.66521C17.7794 9.53496 17.7794 9.32383 17.6492 9.19358L14.794 6.33713ZM5.99722 15.142C5.91505 15.0603 5.79638 15.0271 5.68375 15.0543C5.57113 15.0815 5.4807 15.1652 5.44487 15.2754L4.01731 19.5581C3.97714 19.6779 4.00813 19.8101 4.09736 19.8996C4.18733 19.988 4.31891 20.0191 4.43891 19.9803L8.72158 18.5534C8.83203 18.5177 8.91597 18.4271 8.94319 18.3143C8.97042 18.2014 8.93701 18.0826 8.855 18.0004L5.99722 15.142Z" fill="white"/>
</mask>
<g mask="url(#mask0_22339_310728)">
</g>
</svg>
