<svg width="24" height="24" viewBox="0 0 24 24" fill="none" xmlns="http://www.w3.org/2000/svg">
<path fill-rule="evenodd" clip-rule="evenodd" d="M3.99609 4.99562C3.99609 4.44299 4.44409 3.995 4.99672 3.995C5.54935 3.995 5.99734 4.44299 5.99734 4.99562V19.0044C5.99734 19.557 5.54935 20.005 4.99672 20.005C4.44409 20.005 3.99609 19.557 3.99609 19.0044V4.99562ZM18.5158 5.37853C18.8603 5.20186 19.2738 5.22744 19.5938 5.44523C19.8553 5.63527 20.0088 5.93988 20.0061 6.26308V16.216C20.0061 16.835 19.6005 17.0645 19.1522 17.2353C18.0802 17.6998 16.931 17.9604 15.7634 18.0037C14.6205 17.9268 13.493 17.6977 12.4107 17.3227C10.318 16.7103 9.61761 16.5635 8.11333 16.7363C7.82986 16.769 7.54591 16.6791 7.33287 16.4893C7.11984 16.2995 6.99799 16.0277 6.99797 15.7423V5.72274C6.9971 5.21948 7.37014 4.79387 7.86918 4.72879C9.58625 4.50732 10.3621 4.66208 12.6015 5.31582C13.6226 5.67004 14.6855 5.88958 15.7634 5.96889C16.7083 5.93435 17.6399 5.73454 18.5158 5.37853Z" fill="#3A1251"/>
<mask id="mask0_22339_310738" style="mask-type:luminance" maskUnits="userSpaceOnUse" x="3" y="3" width="18" height="18">
<path fill-rule="evenodd" clip-rule="evenodd" d="M3.99609 4.99562C3.99609 4.44299 4.44409 3.995 4.99672 3.995C5.54935 3.995 5.99734 4.44299 5.99734 4.99562V19.0044C5.99734 19.557 5.54935 20.005 4.99672 20.005C4.44409 20.005 3.99609 19.557 3.99609 19.0044V4.99562ZM18.5158 5.37853C18.8603 5.20186 19.2738 5.22744 19.5938 5.44523C19.8553 5.63527 20.0088 5.93988 20.0061 6.26308V16.216C20.0061 16.835 19.6005 17.0645 19.1522 17.2353C18.0802 17.6998 16.931 17.9604 15.7634 18.0037C14.6205 17.9268 13.493 17.6977 12.4107 17.3227C10.318 16.7103 9.61761 16.5635 8.11333 16.7363C7.82986 16.769 7.54591 16.6791 7.33287 16.4893C7.11984 16.2995 6.99799 16.0277 6.99797 15.7423V5.72274C6.9971 5.21948 7.37014 4.79387 7.86918 4.72879C9.58625 4.50732 10.3621 4.66208 12.6015 5.31582C13.6226 5.67004 14.6855 5.88958 15.7634 5.96889C16.7083 5.93435 17.6399 5.73454 18.5158 5.37853Z" fill="white"/>
</mask>
<g mask="url(#mask0_22339_310738)">
</g>
</svg>
