<svg width="24" height="24" viewBox="0 0 24 24" fill="none" xmlns="http://www.w3.org/2000/svg">
<path d="M16.8012 13.601C15.9343 13.6016 15.1051 13.9554 14.5047 14.5808L10.987 12.8216C11.0171 12.6561 11.0341 12.4884 11.0376 12.3202C11.0341 12.152 11.0172 11.9843 10.987 11.8188L14.5047 10.0596C15.5714 11.1558 17.2653 11.3426 18.5453 10.5052C19.8253 9.6678 20.3325 8.0409 19.7553 6.6244C19.1781 5.20791 17.6782 4.39891 16.1775 4.69461C14.6768 4.99031 13.5959 6.30782 13.5992 7.8374C13.6027 8.00584 13.6196 8.17373 13.6498 8.33947L10.1321 10.0974C9.22575 9.15741 7.83949 8.86191 6.62866 9.35057C5.41783 9.83923 4.625 11.0142 4.625 12.3199C4.625 13.6256 5.41783 14.8005 6.62866 15.2892C7.83949 15.7778 9.22575 15.4823 10.1321 14.5424L13.6498 16.3009C13.6195 16.4667 13.6026 16.6346 13.5992 16.803C13.5992 18.5714 15.0328 20.005 16.8012 20.005C18.5696 20.005 20.0032 18.5714 20.0032 16.803C20.0032 15.0346 18.5696 13.601 16.8012 13.601Z" fill="#3A1251"/>
<mask id="mask0_22339_310725" style="mask-type:luminance" maskUnits="userSpaceOnUse" x="4" y="4" width="17" height="17">
<path d="M16.8012 13.601C15.9343 13.6016 15.1051 13.9554 14.5047 14.5808L10.987 12.8216C11.0171 12.6561 11.0341 12.4884 11.0376 12.3202C11.0341 12.152 11.0172 11.9843 10.987 11.8188L14.5047 10.0596C15.5714 11.1558 17.2653 11.3426 18.5453 10.5052C19.8253 9.6678 20.3325 8.0409 19.7553 6.6244C19.1781 5.20791 17.6782 4.39891 16.1775 4.69461C14.6768 4.99031 13.5959 6.30782 13.5992 7.8374C13.6027 8.00584 13.6196 8.17373 13.6498 8.33947L10.1321 10.0974C9.22575 9.15741 7.83949 8.86191 6.62866 9.35057C5.41783 9.83923 4.625 11.0142 4.625 12.3199C4.625 13.6256 5.41783 14.8005 6.62866 15.2892C7.83949 15.7778 9.22575 15.4823 10.1321 14.5424L13.6498 16.3009C13.6195 16.4667 13.6026 16.6346 13.5992 16.803C13.5992 18.5714 15.0328 20.005 16.8012 20.005C18.5696 20.005 20.0032 18.5714 20.0032 16.803C20.0032 15.0346 18.5696 13.601 16.8012 13.601Z" fill="white"/>
</mask>
<g mask="url(#mask0_22339_310725)">
</g>
</svg>
