<svg width="24" height="24" viewBox="0 0 24 24" fill="none" xmlns="http://www.w3.org/2000/svg">
<path d="M19.707 9.81797C19.5611 9.42594 19.1874 9.16547 18.7691 9.16423H14.7086C14.567 9.16433 14.4407 9.075 14.3937 8.94142L12.9361 4.81018C12.7899 4.41916 12.4163 4.15999 11.9989 4.15999C11.5814 4.15999 11.2078 4.41916 11.0616 4.81018L11.0583 4.82085L9.60406 8.94142C9.55712 9.07477 9.43123 9.16405 9.28986 9.16423H5.22799C4.80682 9.16391 4.43054 9.42735 4.28674 9.82321C4.14294 10.2191 4.26241 10.6626 4.58559 10.9327L8.04375 13.8011C8.14962 13.889 8.19069 14.0328 8.14715 14.1634L6.69424 18.5201C6.55646 18.9334 6.70198 19.3884 7.05406 19.6451C7.40614 19.9017 7.88383 19.9011 8.2352 19.6434L11.8014 17.0285C11.9188 16.9425 12.0783 16.9425 12.1957 17.0285L15.7606 19.6428C16.1118 19.9013 16.59 19.9026 16.9426 19.6459C17.2952 19.3892 17.441 18.9338 17.3029 18.5201L15.85 14.1607C15.8064 14.0302 15.8475 13.8863 15.9534 13.7985L19.4182 10.926C19.7372 10.6537 19.8525 10.2113 19.707 9.81797Z" fill="#3A1251"/>
<mask id="mask0_22339_310731" style="mask-type:luminance" maskUnits="userSpaceOnUse" x="4" y="4" width="16" height="16">
<path d="M19.707 9.81797C19.5611 9.42594 19.1874 9.16547 18.7691 9.16423H14.7086C14.567 9.16433 14.4407 9.075 14.3937 8.94142L12.9361 4.81018C12.7899 4.41916 12.4163 4.15999 11.9989 4.15999C11.5814 4.15999 11.2078 4.41916 11.0616 4.81018L11.0583 4.82085L9.60406 8.94142C9.55712 9.07477 9.43123 9.16405 9.28986 9.16423H5.22799C4.80682 9.16391 4.43054 9.42735 4.28674 9.82321C4.14294 10.2191 4.26241 10.6626 4.58559 10.9327L8.04375 13.8011C8.14962 13.889 8.19069 14.0328 8.14715 14.1634L6.69424 18.5201C6.55646 18.9334 6.70198 19.3884 7.05406 19.6451C7.40614 19.9017 7.88383 19.9011 8.2352 19.6434L11.8014 17.0285C11.9188 16.9425 12.0783 16.9425 12.1957 17.0285L15.7606 19.6428C16.1118 19.9013 16.59 19.9026 16.9426 19.6459C17.2952 19.3892 17.441 18.9338 17.3029 18.5201L15.85 14.1607C15.8064 14.0302 15.8475 13.8863 15.9534 13.7985L19.4182 10.926C19.7372 10.6537 19.8525 10.2113 19.707 9.81797Z" fill="white"/>
</mask>
<g mask="url(#mask0_22339_310731)">
</g>
</svg>
