<svg width="21" height="20" viewBox="0 0 21 20" fill="none" xmlns="http://www.w3.org/2000/svg">
<path fill-rule="evenodd" clip-rule="evenodd" d="M8.8891 15.6094C8.21969 15.6089 7.67713 15.0664 7.67667 14.397L7.67751 7.5402C7.67773 7.48485 7.65584 7.43169 7.6167 7.39255C7.57755 7.35341 7.5244 7.33152 7.46905 7.33174H5.05087C4.64068 7.36468 4.25609 7.12925 4.09884 6.74897C3.9416 6.3687 4.04761 5.9304 4.36127 5.66403L9.44611 0.577521C9.92587 0.119668 10.6808 0.119668 11.1605 0.577521L16.2454 5.65986C16.5578 5.9267 16.6631 6.36436 16.5061 6.74409C16.349 7.12382 15.9655 7.35935 15.5558 7.32757H13.1376C13.0225 7.32757 12.9291 7.4209 12.9291 7.53603V14.397C12.9287 15.0661 12.3866 15.6085 11.7175 15.6094H8.8891ZM3.85679 19.7662C1.99933 19.7643 0.494026 18.259 0.492188 16.4016V14.8364C0.50798 14.2839 0.960463 13.8441 1.51324 13.8441C2.06602 13.8441 2.5185 14.2839 2.5343 14.8364V16.3991C2.53522 17.1291 3.12678 17.7206 3.85679 17.7216H17.1401C17.8701 17.7206 18.4617 17.1291 18.4626 16.3991V14.8364C18.4784 14.2839 18.9309 13.8441 19.4836 13.8441C20.0364 13.8441 20.4889 14.2839 20.5047 14.8364V16.4016C20.5028 18.259 18.9975 19.7643 17.1401 19.7662H3.85679Z" fill="#3A1251"/>
</svg>
