<svg width="17" height="14" viewBox="0 0 17 14" fill="none" xmlns="http://www.w3.org/2000/svg">
<path fill-rule="evenodd" clip-rule="evenodd" d="M3.4074 4.47841L7.35268 0.52461C7.54355 0.337023 7.82783 0.28216 8.0745 0.385311C8.32117 0.488461 8.48234 0.729599 8.48371 0.997572V13.0051C8.48128 13.2726 8.31973 13.5127 8.07329 13.6152C7.82685 13.7177 7.5432 13.6626 7.35268 13.4754L3.4074 9.52223C3.37626 9.49073 3.33388 9.47296 3.28964 9.47287H1.83062C1.09574 9.47287 0.5 8.87554 0.5 8.1387V5.86128C0.5 5.12444 1.09574 4.52711 1.83062 4.52711H3.28964C3.3338 4.52726 3.37619 4.50973 3.4074 4.47841ZM11.2701 2.31718C11.5268 2.05987 11.9417 2.05625 12.2028 2.30906C13.4445 3.5531 14.1421 5.24096 14.1421 7.00099C14.1421 8.76101 13.4445 10.4489 12.2028 11.6929C11.9417 11.9457 11.5268 11.9421 11.2701 11.6848C11.0135 11.4275 11.0099 11.0114 11.262 10.7497C12.2541 9.75573 12.8115 8.40719 12.8115 7.00099C12.8115 5.59479 12.2541 4.24625 11.262 3.25231C11.0099 2.99056 11.0135 2.5745 11.2701 2.31718ZM13.8335 0.620003C13.5724 0.367197 13.1575 0.370812 12.9008 0.628129C12.6442 0.885446 12.6406 1.30151 12.8927 1.56326C15.8814 4.56834 15.8814 9.43164 12.8927 12.4367C12.7198 12.6042 12.6504 12.8522 12.7113 13.0855C12.7722 13.3187 12.9538 13.5008 13.1864 13.5619C13.4191 13.6229 13.6664 13.5534 13.8335 13.38C17.3413 9.85375 17.3413 4.14623 13.8335 0.620003ZM9.93086 3.82607C10.1606 3.76462 10.4055 3.83071 10.5734 3.99945C12.2201 5.66025 12.2198 8.34276 10.5728 10.0032C10.4094 10.1896 10.1563 10.2697 9.91575 10.211C9.67523 10.1523 9.48709 9.96461 9.42738 9.72375C9.36767 9.48289 9.44625 9.22871 9.63137 9.06394C10.763 7.92422 10.763 6.08175 9.63137 4.94204C9.46344 4.7733 9.39805 4.52756 9.45982 4.29737C9.5216 4.06718 9.70115 3.88753 9.93086 3.82607Z" fill="#3A1251"/>
</svg>
