<svg width="17" height="16" viewBox="0 0 17 16" fill="none" xmlns="http://www.w3.org/2000/svg">
<path fill-rule="evenodd" clip-rule="evenodd" d="M8.50109 2.30777C8.86951 2.30777 9.16818 2.00911 9.16818 1.64069V0.662078C9.16818 0.293658 8.86951 -0.00500488 8.50109 -0.00500488C8.13267 -0.00500488 7.83401 0.293658 7.83401 0.662078V1.64069C7.83401 2.00911 8.13267 2.30777 8.50109 2.30777ZM3.5947 8C3.5947 5.29027 5.79136 3.0936 8.50109 3.0936C11.2096 3.09654 13.4046 5.29149 13.4075 8C13.4075 10.7097 11.2108 12.9064 8.50109 12.9064C5.79136 12.9064 3.5947 10.7097 3.5947 8ZM4.92886 8C4.92886 9.97288 6.5282 11.5722 8.50109 11.5722C10.4731 11.57 12.0711 9.97197 12.0733 8C12.0733 6.02711 10.474 4.42776 8.50109 4.42776C6.5282 4.42776 4.92886 6.02711 4.92886 8ZM4.1814 4.15673C3.94817 4.21777 3.70014 4.14823 3.53266 3.97481L2.84089 3.28305C2.58809 3.0213 2.5917 2.60524 2.84902 2.34792C3.10633 2.0906 3.5224 2.08699 3.78415 2.33979L4.47591 3.03156C4.64933 3.19905 4.71887 3.44707 4.65782 3.6803C4.59678 3.91353 4.41463 4.09568 4.1814 4.15673ZM2.14179 7.33291H1.16318C0.794757 7.33291 0.496094 7.63158 0.496094 8C0.496094 8.36841 0.794757 8.66708 1.16318 8.66708H2.14179C2.51021 8.66708 2.80887 8.36841 2.80887 8C2.80887 7.63158 2.51021 7.33291 2.14179 7.33291ZM2.84089 12.7169L3.53266 12.0252C3.70014 11.8518 3.94817 11.7822 4.1814 11.8433C4.41463 11.9043 4.59678 12.0865 4.65782 12.3197C4.71887 12.5529 4.64933 12.8009 4.47591 12.9684L3.78415 13.6602C3.61666 13.8336 3.36864 13.9032 3.1354 13.8421C2.90217 13.7811 2.72003 13.5989 2.65898 13.3657C2.59793 13.1325 2.66748 12.8844 2.84089 12.7169ZM8.50109 13.6922C8.13267 13.6922 7.83401 13.9909 7.83401 14.3593V15.3379C7.83401 15.7063 8.13267 16.005 8.50109 16.005C8.86951 16.005 9.16818 15.7063 9.16818 15.3379V14.3593C9.16818 13.9909 8.86951 13.6922 8.50109 13.6922ZM12.5344 12.0333C12.7917 11.776 13.2078 11.7724 13.4695 12.0252L14.1613 12.7169C14.4141 12.9787 14.4105 13.3948 14.1532 13.6521C13.8959 13.9094 13.4798 13.913 13.218 13.6602L12.5263 12.9684C12.2735 12.7067 12.2771 12.2906 12.5344 12.0333ZM15.839 7.33291H14.8604C14.492 7.33291 14.1933 7.63158 14.1933 8C14.1933 8.36841 14.492 8.66708 14.8604 8.66708H15.839C16.2074 8.66708 16.5061 8.36841 16.5061 8C16.5061 7.63158 16.2074 7.33291 15.839 7.33291ZM13.4695 3.97481C13.3445 4.09993 13.1748 4.17023 12.9979 4.17027C12.7281 4.17021 12.485 4.00768 12.3817 3.75845C12.2785 3.50921 12.3356 3.22234 12.5263 3.03156L13.218 2.33979C13.4798 2.08699 13.8959 2.0906 14.1532 2.34792C14.4105 2.60524 14.4141 3.0213 14.1613 3.28305L13.4695 3.97481Z" fill="white"/>
</svg>
